<svg xmlns="http://www.w3.org/2000/svg" version="1.1" xmlns:xlink="http://www.w3.org/1999/xlink" viewBox="0 0 200 180"><rect width="200" height="180" fill="url('#gradient')"></rect><g><g fill="black" transform="matrix(5.267790797370678,0,0,5.267790797370678,4.359078386235339,116.20784515441912)"><path d="M12.96-14.22L12.96 0L9.55 0L9.55-5.94L4.50-5.94L4.50 0L1.07 0L1.07-14.22L4.50-14.22L4.50-8.57L9.55-8.57L9.55-14.22L12.96-14.22ZM20.09 0.20L20.09 0.20Q17.66 0.20 16.15-1.25Q14.65-2.71 14.65-5.03L14.65-5.03L14.65-5.30Q14.65-6.92 15.25-8.16Q15.85-9.40 17.00-10.08Q18.15-10.76 19.74-10.76L19.74-10.76Q21.96-10.76 23.25-9.38Q24.54-8.00 24.54-5.53L24.54-5.53L24.54-4.25L18.00-4.25Q18.17-3.36 18.77-2.85Q19.37-2.34 20.31-2.34L20.31-2.34Q21.88-2.34 22.75-3.44L22.75-3.44L24.26-1.66Q23.64-0.81 22.51-0.31Q21.39 0.20 20.09 0.20ZM19.72-8.22L19.72-8.22Q18.27-8.22 18.00-6.31L18.00-6.31L21.32-6.31L21.32-6.56Q21.34-7.35 20.92-7.79Q20.50-8.22 19.72-8.22ZM28.29-10.57L29.96-4.61L31.72-10.57L35.24-10.57L30.94 1.77L30.75 2.22Q29.83 4.27 27.51 4.27L27.51 4.27Q26.87 4.27 26.15 4.07L26.15 4.07L26.15 1.72L26.58 1.72Q27.28 1.72 27.64 1.52Q28.01 1.32 28.18 0.80L28.18 0.80L28.45 0.10L24.78-10.57L28.29-10.57Z"></path></g></g><defs><linearGradient id="gradient" gradientTransform="rotate(10)"><stop offset="0%" stop-color="#ffd700"></stop><stop offset="100%" stop-color="#ff8c00"></stop></linearGradient></defs><g><text font-size="100" x="69.9951171875" y="128.7939453125"><tspan dy="0" x="69.9951171875">😊</tspan></text></g></svg>